<?xml version="1.0" encoding="UTF-8"?>
<!-- Generator: Adobe Illustrator 15.0.0, SVG Export Plug-In . SVG Version: 6.00 Build 0)  -->
<!DOCTYPE svg PUBLIC "-//W3C//DTD SVG 1.1//EN" "http://www.w3.org/Graphics/SVG/1.1/DTD/svg11.dtd">
<svg version="1.1" id="Layer_1" xmlns="http://www.w3.org/2000/svg" xmlns:xlink="http://www.w3.org/1999/xlink" x="0px" y="0px" width="566.743px" height="69.615px" viewBox="0 0 566.743 69.615" enable-background="new 0 0 566.743 69.615" xml:space="preserve">
<g>
	<polygon fill-rule="evenodd" clip-rule="evenodd" fill="#FFFFFF" points="0,69.461 17.445,54.301 25.062,56.75 41.887,38.211    45.961,42.933 42.861,56.399 63.672,19.322 74.565,32.09 78.993,30.253 99.626,65.319 103.435,56.169 114.327,69.461 103.7,48.998    99.45,54.332 82.27,18.653 75.362,23.726 61.016,0.727 50.035,30.021 44.456,24.338 24.796,48.123 16.383,42.789 0,69.461  "/>
	<path fill="#FFFFFF" d="M150.516,33.84c2.831,0,4.931-0.659,6.299-1.979c1.369-1.32,2.052-3.876,2.052-7.668   c0-2.592-0.3-4.56-0.899-5.904c-0.601-1.343-1.489-2.232-2.664-2.664c-1.177-0.432-2.773-0.647-4.788-0.647h-2.592V33.84H150.516   L150.516,33.84z M130.499,0.72h22.032c16.031,0,24.048,7.825,24.048,23.473c0,7.824-2.076,13.597-6.228,17.315   c-4.152,3.721-10.092,5.58-17.82,5.58h-22.032V0.72L130.499,0.72z"/>
	<polygon fill="#FFFFFF" points="180.178,0.72 217.258,0.72 217.258,13.248 197.602,13.248 197.602,17.424 214.522,17.424    214.522,30.384 197.602,30.384 197.602,34.561 217.258,34.561 217.258,47.088 180.178,47.088 180.178,0.72  "/>
	<path fill="#FFFFFF" d="M226.69,46.944c-3.024-0.576-5.544-1.368-7.56-2.376V31.536c2.304,1.104,4.86,2.016,7.668,2.736   c2.808,0.72,5.316,1.08,7.524,1.08c1.44,0,2.568-0.181,3.384-0.54c0.815-0.36,1.224-0.876,1.224-1.549   c0-0.575-0.336-1.044-1.008-1.403c-0.673-0.36-1.92-0.852-3.744-1.477c-2.113-0.72-3.312-1.127-3.6-1.224   c-3.072-1.152-5.448-2.352-7.128-3.6c-1.681-1.248-2.892-2.736-3.636-4.465c-0.745-1.728-1.116-3.935-1.116-6.624   c0-4.896,1.693-8.531,5.076-10.907C227.158,1.188,232.258,0,239.074,0c2.256,0,4.871,0.229,7.848,0.685   c2.975,0.456,5.447,0.972,7.416,1.548v13.104c-4.561-1.872-8.664-2.808-12.312-2.808c-3.697,0-5.544,0.601-5.544,1.8   c0,0.48,0.335,0.876,1.008,1.188c0.672,0.313,2.016,0.756,4.032,1.331l1.872,0.505c3.696,1.008,6.516,2.244,8.46,3.708   c1.944,1.464,3.264,3.144,3.96,5.04c0.696,1.896,1.044,4.26,1.044,7.092c0,4.512-1.764,8.076-5.292,10.691   c-3.528,2.617-8.652,3.925-15.372,3.925C232.882,47.809,229.714,47.521,226.69,46.944L226.69,46.944z"/>
	<path fill="#FFFFFF" d="M264.238,41.76c-4.679-4.031-7.019-9.982-7.019-17.855c0-7.872,2.315-13.824,6.948-17.856   C268.798,2.017,275.674,0,284.795,0c2.831,0,5.388,0.205,7.668,0.612c2.279,0.408,4.596,1.044,6.948,1.908v15.191   c-4.369-2.016-8.856-3.023-13.465-3.023c-3.599,0-6.324,0.696-8.172,2.088c-1.847,1.393-2.771,3.769-2.771,7.128   c0,3.312,0.947,5.677,2.844,7.092c1.895,1.416,4.643,2.124,8.244,2.124c4.607,0,9.095-1.008,13.464-3.024v15.192   c-2.354,0.864-4.669,1.501-6.949,1.908c-2.28,0.407-4.836,0.612-7.668,0.612C275.818,47.809,268.919,45.792,264.238,41.76   L264.238,41.76z"/>
	<polygon fill="#FFFFFF" points="303.153,0.72 340.233,0.72 340.233,13.248 320.578,13.248 320.578,17.424 337.498,17.424    337.498,30.384 320.578,30.384 320.578,34.561 340.233,34.561 340.233,47.088 303.153,47.088 303.153,0.72  "/>
	<polygon fill="#FFFFFF" points="343.113,0.72 357.729,0.72 370.689,18.864 370.689,0.72 388.113,0.72 388.113,47.088    373.425,47.088 360.538,28.944 360.538,47.088 343.113,47.088 343.113,0.72  "/>
	<path fill="#FFFFFF" d="M413.168,33.84c2.831,0,4.932-0.659,6.3-1.979s2.052-3.876,2.052-7.668c0-2.592-0.299-4.56-0.899-5.904   c-0.601-1.343-1.488-2.232-2.664-2.664c-1.177-0.432-2.772-0.647-4.788-0.647h-2.592V33.84H413.168L413.168,33.84z M393.152,0.72   h22.032c16.031,0,24.048,7.825,24.048,23.473c0,7.824-2.076,13.597-6.228,17.315c-4.152,3.721-10.093,5.58-17.82,5.58h-22.032V0.72   L393.152,0.72z"/>
	<polygon fill="#FFFFFF" points="442.832,0.72 479.912,0.72 479.912,13.248 460.256,13.248 460.256,17.424 477.177,17.424    477.177,30.384 460.256,30.384 460.256,34.561 479.912,34.561 479.912,47.088 442.832,47.088 442.832,0.72  "/>
	<path fill="#FFFFFF" d="M504.463,21.672c2.831,0,4.248-1.199,4.248-3.6c0-1.296-0.323-2.243-0.973-2.844   c-0.647-0.6-1.644-0.9-2.987-0.9h-4.536v7.344H504.463L504.463,21.672z M482.791,0.72h26.064c5.712,0,10.067,1.597,13.068,4.788   c2.999,3.193,4.5,7.38,4.5,12.564c0,2.977-0.756,5.652-2.269,8.028c-1.512,2.376-3.492,4.38-5.939,6.012   c0.911,0.624,1.559,1.416,1.943,2.376l5.474,12.6h-18.146l-4.536-10.296c-0.24-0.576-0.504-0.972-0.792-1.188   c-0.288-0.217-0.696-0.324-1.224-0.324h-0.72v11.808h-17.425V0.72L482.791,0.72z"/>
	<path fill="#FFFFFF" d="M536.575,46.944c-3.024-0.576-5.544-1.368-7.56-2.376V31.536c2.304,1.104,4.859,2.016,7.667,2.736   c2.809,0.72,5.316,1.08,7.524,1.08c1.439,0,2.567-0.181,3.385-0.54c0.814-0.36,1.223-0.876,1.223-1.549   c0-0.575-0.336-1.044-1.007-1.403c-0.673-0.36-1.92-0.852-3.745-1.477c-2.112-0.72-3.312-1.127-3.6-1.224   c-3.071-1.152-5.447-2.352-7.128-3.6s-2.893-2.736-3.636-4.465c-0.745-1.728-1.116-3.935-1.116-6.624   c0-4.896,1.692-8.531,5.076-10.907S542.142,0,548.958,0c2.256,0,4.871,0.229,7.849,0.685c2.975,0.456,5.446,0.972,7.416,1.548   v13.104c-4.562-1.872-8.665-2.808-12.313-2.808c-3.697,0-5.544,0.601-5.544,1.8c0,0.48,0.335,0.876,1.008,1.188   c0.672,0.313,2.017,0.756,4.032,1.331l1.872,0.505c3.695,1.008,6.516,2.244,8.46,3.708c1.943,1.464,3.264,3.144,3.96,5.04   c0.695,1.896,1.044,4.26,1.044,7.092c0,4.512-1.765,8.076-5.292,10.691c-3.528,2.617-8.652,3.925-15.372,3.925   C542.766,47.809,539.599,47.521,536.575,46.944L536.575,46.944z"/>
	<polygon fill="#FFFFFF" points="130.038,59.486 137.596,59.486 137.596,61.717 132.949,61.717 132.949,63.343 137.023,63.343    137.023,65.604 132.949,65.604 132.949,67.23 137.596,67.23 137.596,69.461 130.038,69.461 130.038,59.486  "/>
	<polygon fill="#FFFFFF" points="144.999,64.411 141.452,59.486 144.922,59.486 146.749,62.104 148.593,59.486 152.061,59.486    148.515,64.411 152.201,69.461 148.685,69.461 146.749,66.75 144.829,69.461 141.313,69.461 144.999,64.411  "/>
	<polygon fill="#FFFFFF" points="158.567,61.654 155.764,61.654 155.764,59.486 164.282,59.486 164.282,61.654 161.479,61.654    161.479,69.461 158.567,69.461 158.567,61.654  "/>
	<path fill="#FFFFFF" d="M172.6,64.318c0.422,0,0.75-0.11,0.983-0.333c0.232-0.222,0.349-0.539,0.349-0.952   c0-0.878-0.414-1.316-1.24-1.316h-1.627v2.602H172.6L172.6,64.318z M168.154,59.486h5.189c1.176,0,2.064,0.32,2.664,0.96   c0.598,0.641,0.898,1.503,0.898,2.587c0,0.661-0.166,1.247-0.496,1.758s-0.779,0.906-1.348,1.185   c0.115,0.093,0.212,0.201,0.295,0.325c0.082,0.124,0.175,0.305,0.279,0.542l1.146,2.618h-3.036l-1.053-2.401   c-0.083-0.186-0.183-0.317-0.302-0.395c-0.119-0.077-0.287-0.116-0.503-0.116h-0.822v2.912h-2.911V59.486L168.154,59.486z"/>
	<polygon fill="#FFFFFF" points="181.088,59.486 188.645,59.486 188.645,61.717 183.999,61.717 183.999,63.343 188.073,63.343    188.073,65.604 183.999,65.604 183.999,67.23 188.645,67.23 188.645,69.461 181.088,69.461 181.088,59.486  "/>
	<polygon fill="#FFFFFF" points="192.673,59.486 195.507,59.486 197.985,64.551 200.448,59.486 203.267,59.486 203.267,69.461    200.354,69.461 200.354,64.474 198.76,67.757 197.195,67.757 195.584,64.474 195.584,69.461 192.673,69.461 192.673,59.486  "/>
	<polygon fill="#FFFFFF" points="207.758,59.486 215.315,59.486 215.315,61.717 210.669,61.717 210.669,63.343 214.743,63.343    214.743,65.604 210.669,65.604 210.669,67.23 215.315,67.23 215.315,69.461 207.758,69.461 207.758,59.486  "/>
	<path fill="#FFFFFF" d="M232.121,64.551c0.434,0,0.767-0.126,0.999-0.379s0.349-0.592,0.349-1.015c0-0.454-0.107-0.809-0.318-1.062   c-0.212-0.253-0.529-0.379-0.953-0.379h-1.58v2.834H232.121L232.121,64.551z M227.707,59.486h5.142c1.177,0,2.07,0.341,2.679,1.022   c0.61,0.681,0.914,1.563,0.914,2.648c0,0.702-0.15,1.326-0.449,1.874c-0.3,0.547-0.726,0.976-1.278,1.285   c-0.552,0.31-1.196,0.465-1.928,0.465h-2.169v2.68h-2.911V59.486L227.707,59.486z"/>
	<path fill="#FFFFFF" d="M244.76,64.318c0.423,0,0.751-0.11,0.983-0.333c0.232-0.222,0.349-0.539,0.349-0.952   c0-0.878-0.413-1.316-1.24-1.316h-1.627v2.602H244.76L244.76,64.318z M240.314,59.486h5.189c1.177,0,2.064,0.32,2.664,0.96   c0.599,0.641,0.898,1.503,0.898,2.587c0,0.661-0.166,1.247-0.496,1.758s-0.779,0.906-1.347,1.185   c0.114,0.093,0.212,0.201,0.295,0.325c0.082,0.124,0.174,0.305,0.278,0.542l1.146,2.618h-3.036l-1.053-2.401   c-0.083-0.186-0.183-0.317-0.302-0.395c-0.118-0.077-0.286-0.116-0.503-0.116h-0.822v2.912h-2.911V59.486L240.314,59.486z"/>
	<path fill="#FFFFFF" d="M259.419,66.51c0.335-0.418,0.503-1.086,0.503-2.005c0-0.971-0.165-1.663-0.495-2.076   c-0.331-0.413-0.873-0.619-1.627-0.619c-0.753,0-1.296,0.206-1.626,0.619s-0.495,1.105-0.495,2.076   c0,0.919,0.167,1.587,0.503,2.005c0.335,0.419,0.875,0.628,1.618,0.628C258.544,67.138,259.083,66.929,259.419,66.51L259.419,66.51   z M253.99,68.384c-0.857-0.82-1.285-2.113-1.285-3.879c0-1.817,0.426-3.134,1.277-3.95c0.852-0.815,2.124-1.224,3.818-1.224   c1.693,0,2.967,0.411,3.818,1.231c0.852,0.821,1.277,2.135,1.277,3.942c0,1.755-0.427,3.046-1.285,3.872   c-0.857,0.826-2.127,1.238-3.81,1.238S254.847,69.205,253.99,68.384L253.99,68.384z"/>
	<path fill="#FFFFFF" d="M267.807,68.291c-0.951-0.883-1.425-2.14-1.425-3.771c0-1.683,0.467-2.968,1.401-3.856   c0.935-0.888,2.316-1.332,4.143-1.332c0.589,0,1.123,0.044,1.603,0.132c0.481,0.088,0.963,0.22,1.448,0.395v2.541   c-0.888-0.393-1.837-0.589-2.849-0.589c-0.95,0-1.65,0.217-2.099,0.65c-0.449,0.434-0.674,1.12-0.674,2.06   c0,0.909,0.235,1.572,0.704,1.99c0.47,0.419,1.17,0.628,2.099,0.628c1.023,0,1.973-0.191,2.851-0.573v2.556   c-0.961,0.33-1.983,0.495-3.068,0.495C270.135,69.615,268.756,69.174,267.807,68.291L267.807,68.291z"/>
	<polygon fill="#FFFFFF" points="279.19,59.486 286.748,59.486 286.748,61.717 282.101,61.717 282.101,63.343 286.176,63.343    286.176,65.604 282.101,65.604 282.101,67.23 286.748,67.23 286.748,69.461 279.19,69.461 279.19,59.486  "/>
	<path fill="#FFFFFF" d="M294.864,67.23c0.516,0,0.935-0.075,1.254-0.225c0.32-0.149,0.566-0.418,0.736-0.806   c0.17-0.387,0.256-0.942,0.256-1.665c0-0.732-0.078-1.304-0.232-1.711c-0.155-0.408-0.396-0.694-0.721-0.86   c-0.325-0.165-0.757-0.247-1.293-0.247h-1.178v5.514H294.864L294.864,67.23z M290.775,59.486h4.46c1.591,0,2.796,0.4,3.617,1.2   c0.82,0.8,1.231,2.083,1.231,3.849c0,1.684-0.411,2.925-1.231,3.726c-0.821,0.8-2.026,1.2-3.617,1.2h-4.46V59.486L290.775,59.486z"/>
	<path fill="#FFFFFF" d="M305.481,68.57c-0.862-0.697-1.294-1.681-1.294-2.951v-6.133h2.913v5.823c0,1.219,0.604,1.828,1.812,1.828   c1.197,0,1.797-0.609,1.797-1.828v-5.823h2.911v6.133c0,0.848-0.196,1.57-0.588,2.169s-0.945,1.053-1.657,1.363   c-0.713,0.31-1.534,0.464-2.463,0.464C307.487,69.615,306.343,69.267,305.481,68.57L305.481,68.57z"/>
	<path fill="#FFFFFF" d="M322.48,64.318c0.423,0,0.751-0.11,0.983-0.333c0.232-0.222,0.349-0.539,0.349-0.952   c0-0.878-0.413-1.316-1.239-1.316h-1.627v2.602H322.48L322.48,64.318z M318.035,59.486h5.189c1.176,0,2.063,0.32,2.664,0.96   c0.598,0.641,0.897,1.503,0.897,2.587c0,0.661-0.166,1.247-0.496,1.758s-0.778,0.906-1.348,1.185   c0.115,0.093,0.212,0.201,0.295,0.325c0.082,0.124,0.175,0.305,0.279,0.542l1.146,2.618h-3.036l-1.053-2.401   c-0.083-0.186-0.183-0.317-0.303-0.395c-0.118-0.077-0.286-0.116-0.503-0.116h-0.821v2.912h-2.911V59.486L318.035,59.486z"/>
	<path fill="#FFFFFF" d="M336.434,65.248l-1.115-2.928l-1.115,2.928H336.434L336.434,65.248z M333.786,59.486h3.082l3.826,9.975   h-3.036l-0.836-2.122h-3.005l-0.821,2.122h-3.035L333.786,59.486L333.786,59.486z"/>
	<polygon fill="#FFFFFF" points="344.875,59.486 347.787,59.486 347.787,67.23 352.279,67.23 352.279,69.461 344.875,69.461    344.875,59.486  "/>
	<polygon fill="#FFFFFF" points="364.516,59.486 372.012,59.486 372.012,61.654 367.427,61.654 367.427,63.374 371.422,63.374    371.422,65.573 367.427,65.573 367.427,69.461 364.516,69.461 364.516,59.486  "/>
	<path fill="#FFFFFF" d="M380.329,64.318c0.423,0,0.751-0.11,0.983-0.333c0.232-0.222,0.349-0.539,0.349-0.952   c0-0.878-0.413-1.316-1.239-1.316h-1.627v2.602H380.329L380.329,64.318z M375.883,59.486h5.188c1.177,0,2.065,0.32,2.664,0.96   c0.599,0.641,0.898,1.503,0.898,2.587c0,0.661-0.165,1.247-0.495,1.758s-0.78,0.906-1.349,1.185   c0.114,0.093,0.212,0.201,0.295,0.325c0.082,0.124,0.176,0.305,0.278,0.542l1.147,2.618h-3.036l-1.054-2.401   c-0.083-0.186-0.184-0.317-0.303-0.395c-0.118-0.077-0.286-0.116-0.503-0.116h-0.821v2.912h-2.911V59.486L375.883,59.486z"/>
	<polygon fill="#FFFFFF" points="388.816,59.486 396.374,59.486 396.374,61.717 391.727,61.717 391.727,63.343 395.802,63.343    395.802,65.604 391.727,65.604 391.727,67.23 396.374,67.23 396.374,69.461 388.816,69.461 388.816,59.486  "/>
	<polygon fill="#FFFFFF" points="400.402,59.486 407.959,59.486 407.959,61.717 403.313,61.717 403.313,63.343 407.388,63.343    407.388,65.604 403.313,65.604 403.313,67.23 407.959,67.23 407.959,69.461 400.402,69.461 400.402,59.486  "/>
	<path fill="#FFFFFF" d="M416.433,64.318c0.422,0,0.751-0.11,0.982-0.333c0.232-0.222,0.35-0.539,0.35-0.952   c0-0.878-0.414-1.316-1.24-1.316h-1.627v2.602H416.433L416.433,64.318z M411.987,59.486h5.188c1.177,0,2.064,0.32,2.664,0.96   c0.599,0.641,0.898,1.503,0.898,2.587c0,0.661-0.166,1.247-0.496,1.758s-0.779,0.906-1.348,1.185   c0.114,0.093,0.212,0.201,0.295,0.325c0.082,0.124,0.175,0.305,0.278,0.542l1.146,2.618h-3.036l-1.053-2.401   c-0.083-0.186-0.184-0.317-0.302-0.395c-0.119-0.077-0.287-0.116-0.503-0.116h-0.822v2.912h-2.911V59.486L411.987,59.486z"/>
	<polygon fill="#FFFFFF" points="424.919,59.486 427.831,59.486 427.831,69.461 424.919,69.461 424.919,59.486  "/>
	<path fill="#FFFFFF" d="M436.412,67.23c0.517,0,0.936-0.075,1.254-0.225c0.32-0.149,0.565-0.418,0.736-0.806   c0.17-0.387,0.256-0.942,0.256-1.665c0-0.732-0.078-1.304-0.232-1.711c-0.155-0.408-0.396-0.694-0.721-0.86   c-0.325-0.165-0.757-0.247-1.293-0.247h-1.178v5.514H436.412L436.412,67.23z M432.323,59.486h4.46c1.591,0,2.796,0.4,3.617,1.2   s1.231,2.083,1.231,3.849c0,1.684-0.41,2.925-1.231,3.726c-0.821,0.8-2.026,1.2-3.617,1.2h-4.46V59.486L432.323,59.486z"/>
	<polygon fill="#FFFFFF" points="445.813,59.486 448.725,59.486 448.725,69.461 445.813,69.461 445.813,59.486  "/>
	<polygon fill="#FFFFFF" points="453.216,59.486 455.694,59.486 459.458,64.768 459.458,59.486 462.37,59.486 462.37,69.461    459.876,69.461 456.127,64.194 456.127,69.461 453.216,69.461 453.216,59.486  "/>
	<path fill="#FFFFFF" d="M467.954,68.314c-0.935-0.867-1.4-2.116-1.4-3.748c0-1.683,0.481-2.977,1.446-3.88   c0.966-0.903,2.367-1.355,4.205-1.355c1.188,0,2.221,0.145,3.099,0.434v2.494c-0.806-0.3-1.771-0.449-2.896-0.449   c-0.971,0-1.694,0.22-2.169,0.658c-0.474,0.438-0.712,1.139-0.712,2.099c0,0.888,0.203,1.539,0.612,1.951   c0.407,0.413,1.029,0.62,1.865,0.62c0.496,0,0.972-0.067,1.426-0.201V65.48h-1.983v-1.797h4.414v5.019   c-0.423,0.269-0.957,0.487-1.603,0.658c-0.646,0.17-1.396,0.255-2.254,0.255C470.238,69.615,468.889,69.182,467.954,68.314   L467.954,68.314z"/>
</g>
</svg>